<?xml version="1.0" encoding="utf-8"?>
<!-- Generator: Adobe Illustrator 26.1.0, SVG Export Plug-In . SVG Version: 6.00 Build 0)  -->
<svg version="1.1" id="Livello_1" xmlns="http://www.w3.org/2000/svg" xmlns:xlink="http://www.w3.org/1999/xlink" x="0px" y="0px"
	 viewBox="0 0 500 500" style="enable-background:new 0 0 500 500;" xml:space="preserve">
<style type="text/css">
	.st0{fill:#FFFFFF;}
</style>
<path class="st0" d="M382.2,143.83c2.75,0.2,4.83,0.48,6.92,0.48c12.48,0.04,24.97,0.45,37.42-0.11
	c10.59-0.47,17.97,6.27,18.29,15.93c0.3,8.96-7.66,15.41-18.14,15.42c-15.64,0.02-31.29,0.16-46.93-0.09
	c-4.42-0.07-6.17,1.49-7.22,5.72c-11.23,45.35-22.65,90.65-33.99,135.98c-0.47,1.87-0.59,3.83-1,6.65c2.83,0,5.14,0,7.46,0
	c27.33,0,54.65-0.01,81.98,0.01c10.37,0.01,18.4,6.79,17.85,15.69c-0.65,10.51-8.86,15.79-17.99,15.67
	c-30.09-0.39-60.2-0.01-90.29-0.27c-5.53-0.05-7.93,1.53-9.25,7.09c-5.55,23.4-11.55,46.69-17.53,69.99
	c-2.73,10.66-10.78,15.81-20.26,13.06c-8.88-2.58-12.45-12.51-10.22-20.5c5.58-19.96,10.2-40.19,15.19-60.31
	c0.65-2.62,1.18-5.27,1.93-8.67c-2.87-0.22-4.95-0.51-7.04-0.51c-44.36-0.03-88.71,0.05-133.07-0.12c-5.08-0.02-7.24,1.5-8.45,6.58
	c-5.66,23.82-11.73,47.54-17.72,71.28c-2,7.93-7.11,12.29-14.43,12.67c-7.53,0.39-13.45-3.05-15.6-10.11
	c-0.97-3.19-0.9-7.08-0.13-10.37c4.85-20.54,10.04-41,15.1-61.49c0.6-2.44,1.05-4.91,1.71-8.03c-3.03-0.17-5.34-0.4-7.65-0.4
	c-12.48-0.04-24.95,0.04-37.43-0.05c-9.66-0.07-16.62-6.72-16.59-15.62c0.03-8.79,7.19-15.52,16.71-15.55
	c15.64-0.05,31.29-0.15,46.93,0.07c4.45,0.06,6.6-1.12,7.76-5.8c11.18-45.36,22.63-90.66,33.97-135.98c0.46-1.85,0.56-3.8,0.95-6.56
	c-2.89,0-5.21,0-7.52,0c-27.13,0-54.26,0.01-81.39-0.01c-9.95-0.01-17.35-6.63-17.4-15.49c-0.05-9.14,6.97-15.69,17.11-15.71
	c30.1-0.05,60.2-0.16,90.3,0.1c5.6,0.05,7.88-1.67,9.19-7.16c5.59-23.4,11.61-46.7,17.6-70c2.02-7.86,8.59-13.16,15.64-13.08
	c7.06,0.09,13.57,5.84,15.1,13.68c0.36,1.84,0.13,3.92-0.32,5.77c-5.02,20.52-10.15,41.02-15.23,61.53
	c-0.65,2.62-1.16,5.26-1.9,8.63c2.9,0.21,5.01,0.49,7.11,0.49c44.36,0.03,88.71-0.06,133.07,0.13c5.11,0.02,7.18-1.56,8.39-6.6
	c5.55-23.24,11.52-46.37,17.42-69.53c2.52-9.89,10.18-15.47,18.27-13.53c10.16,2.44,14.68,10.33,11.99,21.25
	c-4.9,19.91-9.9,39.79-14.84,59.69C383.4,138.16,382.91,140.64,382.2,143.83z M157.56,323.39c2.72,0.18,4.64,0.41,6.55,0.41
	c44.93,0.02,89.85-0.04,134.78,0.1c4.43,0.01,6.12-1.49,7.16-5.74c9.28-37.76,18.81-75.45,28.25-113.17
	c2.37-9.47,4.67-18.97,7.1-28.88c-2.52-0.25-4.06-0.53-5.6-0.53c-45.32-0.02-90.65,0.03-135.97-0.1c-4.17-0.01-5.8,1.45-6.78,5.45
	c-8.92,36.22-18.07,72.38-27.13,108.57C163.16,300.56,160.46,311.63,157.56,323.39z"/>
</svg>
