<?xml version="1.0" encoding="utf-8"?>
<!-- Generator: Adobe Illustrator 26.0.3, SVG Export Plug-In . SVG Version: 6.00 Build 0)  -->
<svg version="1.1" id="Livello_1" xmlns="http://www.w3.org/2000/svg" xmlns:xlink="http://www.w3.org/1999/xlink" x="0px" y="0px"
	 viewBox="0 0 700 700" style="enable-background:new 0 0 700 700;" xml:space="preserve">
<style type="text/css">
	.st0{fill:#FFFFFF;}
</style>
<g>
	<path class="st0" d="M243.8,274.1c1.5,1.5,3.6,2.4,5.8,2.4s4.3-0.8,5.8-2.4l10.3-10.3c31.7-31.7,34.7-65.4,8.5-97.5
		c-5-6.2-9-13.2-11.6-21.1l-5.2-15c-0.9-2.7-3.1-4.7-5.9-5.3c-2.7-0.6-5.7,0.2-7.6,2.2l-10.3,10.4c-34.8,34.8-34.8,91.5,0,126.3
		L243.8,274.1z M245.2,149.1l1-1l0.9,2.6c3.3,9.6,8.2,18.4,14.4,26c18.5,22.6,18.8,44,0.7,66.6c1.2-15.5,0.1-37.1-8.9-62.3
		c-1.5-4.3-6.2-6.5-10.5-5s-6.5,6.2-5,10.5c10.2,28.7,9,52.2,6.8,65.2C216.7,223.2,216.9,177.4,245.2,149.1L245.2,149.1z"/>
	<path class="st0" d="M581.8,531.4l-37.9-27.7V343.2c0-2.9-1.5-5.5-4-7.1c-2.5-1.5-5.5-1.5-8.1-0.2l-61.7,33.5v-26.3
		c0-2.9-1.5-5.5-4-7.1c-2.5-1.5-5.5-1.5-8.1-0.2l-61.7,33.5V343c0-2.9-1.5-5.5-4-7.1c-2.5-1.5-5.5-1.5-8.1-0.2l-67.9,37l-13.4-82
		c-0.7-4-4.1-6.9-8.1-6.9h-86.5c-4,0-7.4,2.9-8.1,6.9l-34,209.4l-42.6,31.1c-3.6,2.7-4.5,7.8-1.8,11.5c2.7,3.6,7.8,4.5,11.5,1.8
		l40-29.3l40,29.3c2.9,2.1,6.8,2.1,9.7,0l40-29.3l40,29.3c2.9,2.1,6.8,2.1,9.7,0l40-29.3l40,29.3c2.9,2.1,6.8,2.1,9.7,0l40-29.3
		l40,29.3c1.5,1.1,3.1,1.6,4.8,1.6c1.6,0,3.2-0.6,4.6-1.5c0.1-0.1,0.2-0.1,0.2-0.1l40-29.3l40,29.3c1.5,1.1,3.1,1.6,4.8,1.6
		c2.5,0,5-1.2,6.6-3.4C586.3,539.2,585.5,534.1,581.8,531.4L581.8,531.4z M307.8,527.9l-40-29.3c-2.9-2.1-6.8-2.1-9.7,0l-40,29.3
		l-35.6-26l32.8-201.4h72.6l35.4,216.2L307.8,527.9z M487.3,527.9l-40-29.3c-2.9-2.1-6.8-2.1-9.7,0l-40,29.3l-40-29.3
		c-2.9-2.1-6.8-2.1-9.7,0l-9.7,7.1L319.1,390l60.9-33.1v48.2c0,4.5,3.7,8.2,8.2,8.2s8.2-3.7,8.2-8.2v-17l57.4-31.2v48.2
		c0,4.5,3.7,8.2,8.2,8.2s8.2-3.7,8.2-8.2v-17l57.5-31.1v141.5c-0.1,0.1-0.2,0.1-0.3,0.2L487.3,527.9z"/>
	<path class="st0" d="M496.2,434.7H363.7c-4.5,0-8.2,3.7-8.2,8.2s3.7,8.2,8.2,8.2h132.5c4.5,0,8.2-3.7,8.2-8.2
		C504.4,438.4,500.7,434.7,496.2,434.7z"/>
</g>
</svg>
