<?xml version="1.0" encoding="utf-8"?>
<!-- Generator: Adobe Illustrator 26.0.3, SVG Export Plug-In . SVG Version: 6.00 Build 0)  -->
<svg version="1.1" id="Livello_1" xmlns="http://www.w3.org/2000/svg" xmlns:xlink="http://www.w3.org/1999/xlink" x="0px" y="0px"
	 viewBox="0 0 700 700" style="enable-background:new 0 0 700 700;" xml:space="preserve">
<style type="text/css">
	.st0{fill:#FFFFFF;}
</style>
<path class="st0" d="M536,252c-0.6-13-9.4-45.1-9.4-45.1c-24.8-71.8-92.1-122.4-167.3-126.1c-43.4-2.1-86.4,10.9-120.9,36.8
	c0,0-17.3,10.3-30,28.1c-28.9,33.8-44.9,76.9-44.9,121.3c0,49.2,19,95.7,53.5,130.8c23.8,24.3,40.7,53.5,48.8,84.5
	c2,6.5,3.1,14.8,3.8,20.6H262c-6.9,0-12.5,5.6-12.5,12.5v41.1c0,6.9,5.6,12.5,12.5,12.5h11l16.1,46.1c0.9,2.5,3.3,4.2,6,4.2h109.6
	c2.7,0,5.1-1.7,6-4.2L428,569h10c6.9,0,12.5-5.6,12.5-12.5v-41.1c0-6.9-5.6-12.5-12.5-12.5h-7.6c5.1-38.5,23.3-75.5,52.3-104.7
	C520.9,359.8,540.2,306.5,536,252L536,252z M400.3,606.7H299.7l-13.2-37.6h127.9L400.3,606.7z M437.8,515.5l0.3,40.8l-176,0.3
	l-0.3-40.8L437.8,515.5z M417.5,503h-60.4V381.1c1.4-13.7,5.5-24.7,10.8-33.9c6.7,1.8,19.7,4.6,34.7,4.6c14.9,0,31.8-2.8,46.2-12.2
	c34.7-22.6,40-73.7,40.3-75.9c0.3-3-1.5-5.8-4.3-6.7c-2-0.7-51.1-16.3-85.7,6.3c-31.6,20.6-38.9,65-40,74.2
	c-3.1,4.8-5.9,10.4-8.2,16.3c-2.4-6-5.1-11.5-8.2-16.3c-1.2-9.2-8.5-53.5-40-74.2c-34.6-22.6-83.6-7-85.7-6.3
	c-2.8,0.9-4.7,3.7-4.3,6.7c0.2,2.2,5.6,53.4,40.2,75.9c14.4,9.4,31.3,12.2,46.2,12.2s27.8-2.8,34.5-4.5c5.3,9.2,9.4,20.2,10.9,33.8
	v122h-59.4l-7-23.8c-8.6-33.2-26.6-64.4-52-90.3c-32.1-32.7-49.8-75.9-49.8-121.8c0-41.5,14.8-81.6,41.7-113.1
	c0,0,13.7-15.1,28-26.2c32.2-24.1,72.3-36.2,112.7-34.3c70.2,3.4,132.9,50.7,155.9,117.6c7.6,18.5,8.7,41.9,8.7,41.9
	c4,50.7-14.1,100.4-49.6,136.4C442.4,421,422.6,461.2,417.5,503L417.5,503z M420.1,295.2c-0.4,0.1-23,4.8-43.4,22.2
	c4.8-14.8,13.4-33.1,29.3-43.4c23.5-15.4,56.9-9.3,69.7-6.3c-2.2,12.8-10.1,45.8-33.8,61.3c-21.6,14.2-51.5,10.3-66.1,7
	c18.9-22.4,45.2-28,46.8-28.3c3.5-0.7,5.7-4,5-7.5C426.8,296.8,423.5,294.5,420.1,295.2L420.1,295.2z M278.9,307.7
	c0.4,0.1,27.3,5.7,46.7,28.3c-14.6,3.1-44.4,7-65.9-7.1c-23.6-15.4-31.5-48.4-33.8-61.3c12.7-3.1,46.1-9.1,69.7,6.3
	c15.9,10.4,24.6,28.7,29.3,43.4c-20.5-17.5-43.1-22.1-43.4-22.2c-3.4-0.7-6.8,1.6-7.5,5C273.2,303.5,275.4,307,278.9,307.7
	L278.9,307.7z"/>
</svg>
