<?xml version="1.0" encoding="utf-8"?>
<!-- Generator: Adobe Illustrator 26.1.0, SVG Export Plug-In . SVG Version: 6.00 Build 0)  -->
<svg version="1.1" id="Livello_1" xmlns="http://www.w3.org/2000/svg" xmlns:xlink="http://www.w3.org/1999/xlink" x="0px" y="0px"
	 viewBox="0 0 500 500" style="enable-background:new 0 0 500 500;" xml:space="preserve">
<style type="text/css">
	.st0{fill:#FFFFFF;}
</style>
<path class="st0" d="M379.56,244.65c14.09,0,28.18-0.04,42.26,0.01c14.94,0.05,19.16,4.18,19.17,18.68
	c0.01,62.22,0.02,124.44,0,186.66c-0.01,15.49-2.49,18.02-18.09,18.02c-115.05,0.03-230.09,0.03-345.14,0
	c-14.57,0-18.34-3.75-18.35-18.56c-0.07-61.59-0.06-123.18,0-184.77c0.01-15.22,5.06-20.02,20.52-20.04c14.08-0.02,28.16,0,44.81,0
	c-3.11-2.46-4.06-3.41-5.19-4.07c-10.67-6.23-14.45-12.45-10.38-24.11c5.83-16.7,13.75-32.66,20.51-49.05
	c2.17-5.26,4.24-10.78,4.98-16.36c0.86-6.49-0.06-13.19,0.28-19.77c0.64-12.58,4.93-16.67,17.65-16.76
	c21.37-0.14,42.75-0.04,64.12-0.04c3.4,0,6.8,0,12.82,0c-19.1-14.38-12.4-30.33-6.04-45.03c5.77-13.31,13.91-25.63,21.44-38.13
	c3-4.98,7.25-4.15,10.86-0.12c16.15,18.08,25.81,39.36,27.98,63.3c0.55,6.06-5.16,12.69-8.22,19.58c1.24,0.07,4.48,0.37,7.71,0.38
	c22,0.04,44.01-0.04,66.01,0.05c12,0.05,18.56,5.09,17.63,16.87c-1.51,19.29,3,35.93,13.88,51.93c5.48,8.06,8.17,18.26,10.98,27.83
	C396.87,228.57,394.48,233.88,379.56,244.65z M250.7,353.53c54.09,0,108.17-0.12,162.26,0.13c8.05,0.04,10.96-2.25,10.77-10.71
	c-0.54-24.19-0.46-48.41-0.03-72.61c0.14-7.74-2.18-10.29-10.07-10.27c-108.49,0.21-216.97,0.19-325.46,0.03
	c-7.17-0.01-9.97,1.87-9.81,9.57c0.47,22.94,0.17,45.89,0.17,68.84c0,14.99,0,15.02,14.63,15.02
	C145.67,353.54,198.19,353.54,250.7,353.53z M79.11,449.36c115.02,0,229.45,0,343.84,0c0-28.74,0-56.58,0-84.7
	c-115.02,0-229.45,0-343.84,0C79.11,393.41,79.11,421.25,79.11,449.36z M251.84,128.05c-30.79,0-61.58-0.15-92.37,0.23
	c-3.04,0.04-8.53,3.06-8.68,5.03c-1.31,16.22-2.62,32.84,10.09,45.93c2.31,2.38,6.11,4.55,9.28,4.63
	c17.27,0.45,34.56,0.5,51.83-0.04c3.3-0.1,7.32-2.8,9.58-5.49c4.6-5.48,7.96-11.98,12.34-17.67c3.61-4.69,8.09-6.04,12.24-0.31
	c4.22,5.81,7.94,12.03,12.56,17.49c2.32,2.74,6.1,5.85,9.31,5.95c18.21,0.57,36.44,0.52,54.65,0.05c3.09-0.08,7.07-2.47,9-5.03
	c9.29-12.35,13.93-26.01,12.16-41.96c-0.78-7.02-2.85-8.99-9.61-8.93C313.42,128.2,282.63,128.05,251.84,128.05z M332.34,195.1
	c-18.19,0-35.74,0-53.9,0c2.11,17.64,16.74,36.77-10.29,48.39c25.82,0,49.44,0,73.06,0c-9.27-4.83-15.87-10.43-14.04-21.54
	C328.62,213.16,330.52,204.45,332.34,195.1z M161.51,243.67c23.39,0,46.78,0,70.17,0c-26.73-11.91-9.48-31.98-9.06-48.65
	c-18.16,0-35.5,0-53.08,0C171.25,212.12,186.02,230.79,161.51,243.67z M163.29,217.38c-4.9-10.65-9.18-21.65-14.91-31.83
	c-4.41-7.84-9.82-7.82-13.95,0.13c-4.99,9.61-9,19.91-11.99,30.32c-2.15,7.5,1.39,14.04,9.81,15.25c6.32,0.9,12.97,0.8,19.3-0.1
	C158.33,230.2,161.69,225.41,163.29,217.38z M228.99,217.1c3.15,5.05,4.68,10.38,8.16,12.52c8.11,4.96,17.74,5.38,25.89,0.54
	c3.67-2.18,7.77-9.11,6.83-12.56c-3.07-11.24-7.9-22.11-13.01-32.66c-3.15-6.49-9.09-6.21-12.4-0.28
	C238.79,194.84,234.34,205.7,228.99,217.1z M360.28,233.11c16.62-0.11,22.9-8.25,17.68-24.05c-2.63-7.95-6.21-15.71-10.31-23.02
	c-4.52-8.06-10.26-8.06-14.73,0.07c-4.17,7.59-7.78,15.67-10.31,23.94C337.8,225.85,343.78,233.22,360.28,233.11z M250.89,103.17
	c14.04-0.01,21.63-4.78,19.17-14.11c-3.12-11.84-8.57-23.21-14.21-34.18c-2.95-5.73-8.3-5.33-11.46,0.82
	c-3.97,7.7-8.2,15.39-11.01,23.53C227.49,96.31,232.81,103.18,250.89,103.17z"/>
</svg>
