<?xml version="1.0" encoding="utf-8"?>
<!-- Generator: Adobe Illustrator 26.0.3, SVG Export Plug-In . SVG Version: 6.00 Build 0)  -->
<svg version="1.1" id="Livello_1" xmlns="http://www.w3.org/2000/svg" xmlns:xlink="http://www.w3.org/1999/xlink" x="0px" y="0px"
	 viewBox="0 0 700 700" style="enable-background:new 0 0 700 700;" xml:space="preserve">
<style type="text/css">
	.st0{fill:#FFFFFF;}
</style>
<g>
	<path class="st0" d="M266,204.4c13.4,0,26.2-5.3,35.6-14.8c9.5-9.5,14.8-22.3,14.8-35.6c0-13.4-5.3-26.2-14.8-35.6
		c-9.4-9.5-22.3-14.8-35.6-14.8s-26.2,5.3-35.6,14.8c-9.5,9.4-14.8,22.3-14.8,35.6c0,13.4,5.3,26.2,14.8,35.6
		C239.8,199.1,252.6,204.4,266,204.4L266,204.4z M266,120.4c8.9,0,17.5,3.5,23.8,9.8c6.3,6.3,9.8,14.8,9.8,23.8
		c0,8.9-3.5,17.5-9.8,23.8s-14.8,9.8-23.8,9.8s-17.5-3.5-23.8-9.8s-9.8-14.8-9.8-23.8c0-8.9,3.6-17.4,9.9-23.7
		C248.6,123.9,257.1,120.4,266,120.4L266,120.4z"/>
	<path class="st0" d="M434,204.4c13.4,0,26.2-5.3,35.6-14.8c9.5-9.5,14.8-22.3,14.8-35.6c0-13.4-5.3-26.2-14.8-35.6
		c-9.4-9.5-22.3-14.8-35.6-14.8s-26.2,5.3-35.6,14.8c-9.5,9.4-14.8,22.3-14.8,35.6c0,13.4,5.3,26.2,14.8,35.6
		C407.8,199.1,420.6,204.4,434,204.4L434,204.4z M434,120.4c8.9,0,17.5,3.5,23.8,9.8c6.3,6.3,9.8,14.8,9.8,23.8
		c0,8.9-3.5,17.5-9.8,23.8s-14.8,9.8-23.8,9.8s-17.5-3.5-23.8-9.8s-9.8-14.8-9.8-23.8c0-8.9,3.6-17.4,9.9-23.7
		C416.6,123.9,425.1,120.4,434,120.4L434,120.4z"/>
	<path class="st0" d="M551.6,372.4c18,0,34.6-9.6,43.6-25.2s9-34.8,0-50.4s-25.6-25.2-43.6-25.2c-11.8,0.1-23.2,4.3-32.2,11.9
		c-12-15.4-18.5-34.4-18.2-53.9c-0.1-0.5-0.1-0.9-0.3-1.4c-0.4-1.5-1-2.9-1.8-4.2c-0.1-0.1-0.1-0.1-0.2-0.2
		c-1.6-1.7-3.8-2.7-6.1-2.7H375.2c-0.3,0-0.6,0.1-0.8,0.2c-0.3-0.1-0.6-0.1-0.9-0.2c-2.2,0-4.4,0.9-5.9,2.5
		c-1.6,1.6-2.5,3.7-2.5,5.9c0.3,18.4-5.6,36.3-16.7,50.9c-10.2-15-15.5-32.8-15.2-50.9c-0.1-0.5-0.1-0.9-0.3-1.4
		c-0.4-1.5-1-2.9-1.8-4.2c-0.1-0.1-0.1-0.1-0.2-0.2c-1.6-1.7-3.8-2.7-6.1-2.7H207.2c-2.3,0.2-4.4,1.1-6.1,2.7
		c-0.1,0.1-0.1,0.1-0.2,0.2l0,0c-0.5,0.9-1,1.8-1.5,2.7c-0.1,0.5-0.2,1-0.3,1.4s-0.2,0.9-0.3,1.4c0.2,19.5-6.2,38.6-18.2,53.9
		c-9-7.7-20.4-11.9-32.2-11.9c-13.4,0-26.2,5.3-35.6,14.8C103.3,295.8,98,308.6,98,322s5.3,26.2,14.8,35.6s22.3,14.8,35.6,14.8
		s26.2-5.3,35.6-14.8c9.4-9.5,14.8-22.3,14.8-35.6c-0.1-8.9-2.5-17.5-7-25.2c5.1-5.9,9.5-12.4,12.9-19.4l10.8,86.8l-16.7,200.7l0,0
		c-0.4,4.6,3,8.7,7.7,9.1s8.7-3,9.1-7.7l16.2-193.9h68.5l16.2,193.9l0,0c0.4,4.3,4,7.7,8.4,7.7c0.2,0,0.5,0,0.7,0l0,0
		c2.2-0.2,4.3-1.2,5.7-2.9c1.4-1.7,2.1-3.9,1.9-6.1l-16.7-200.7l5.9-47.5c9.3-2.2,17.9-6.4,25.4-12.3c8.6,7.7,19,13,30.2,15.6
		l5.5,44.2L366.8,565l0,0c-0.4,4.6,3,8.7,7.7,9.1s8.7-3,9.1-7.7l16.2-193.9h68.5l16.2,193.9l0,0c0.4,4.3,4,7.7,8.4,7.7
		c0.2,0,0.5,0,0.7,0l0,0c2.2-0.2,4.3-1.2,5.7-2.9c1.4-1.7,2.1-3.9,1.9-6.1l-16.7-200.7l10.8-86.8c3.4,7,7.8,13.5,12.9,19.4
		c-4.5,7.6-6.9,16.3-7,25.2c0,13.4,5.3,26.2,14.8,35.6C525.4,367.1,538.2,372.4,551.6,372.4L551.6,372.4z M551.6,288.4
		c8.9,0,17.5,3.5,23.8,9.8s9.8,14.8,9.8,23.8c0,8.9-3.5,17.5-9.8,23.8s-14.8,9.8-23.8,9.8c-8.9,0-17.5-3.5-23.8-9.8S518,331,518,322
		c0-8.9,3.6-17.4,9.9-23.7C534.2,291.9,542.7,288.4,551.6,288.4L551.6,288.4z M148.4,355.6c-8.9,0-17.5-3.5-23.8-9.8
		s-9.8-14.8-9.8-23.8c0-8.9,3.5-17.5,9.8-23.8s14.8-9.8,23.8-9.8c8.9,0,17.5,3.5,23.8,9.8S182,313,182,322c0,8.9-3.6,17.4-9.9,23.8
		C165.8,352,157.3,355.6,148.4,355.6L148.4,355.6z M300.6,355.6h-69.2L216.7,238h98.6L300.6,355.6z M324.6,298.8l2.7-21.4l0,0
		c2.6,5.2,5.6,10.2,9.1,14.8C332.8,294.9,328.8,297.2,324.6,298.8L324.6,298.8z M360,292.7L360,292.7c4.9-5.9,9-12.4,12.3-19.3
		l3.6,28.8C370,300,364.6,296.8,360,292.7L360,292.7z M468.6,355.6h-69.2L384.7,238h98.6L468.6,355.6z"/>
	<path class="st0" d="M190.4,389.2h-84c-2.5,0-4.9,1.1-6.5,3.1c-1.6,1.9-2.2,4.5-1.7,7l16.6,83.2v83.2c0,4.6,3.8,8.4,8.4,8.4
		s8.4-3.8,8.4-8.4V490h33.6v75.6c0,4.6,3.8,8.4,8.4,8.4c4.6,0,8.4-3.8,8.4-8.4v-83.2l16.6-83.2c0.5-2.5-0.1-5-1.7-7
		C195.3,390.3,192.9,389.2,190.4,389.2L190.4,389.2z M166.7,473.2h-36.6L116.7,406h63.5L166.7,473.2z"/>
	<path class="st0" d="M593.6,389.2h-84c-2.5,0-4.9,1.1-6.5,3.1c-1.6,1.9-2.2,4.5-1.7,7l16.6,83.2v83.2c0,4.6,3.8,8.4,8.4,8.4
		c4.6,0,8.4-3.8,8.4-8.4V490h33.6v75.6c0,4.6,3.8,8.4,8.4,8.4c4.6,0,8.4-3.8,8.4-8.4v-83.2l16.6-83.2c0.5-2.5-0.1-5-1.7-7
		C598.5,390.3,596.1,389.2,593.6,389.2L593.6,389.2z M569.9,473.2h-36.6L519.9,406h63.5L569.9,473.2z"/>
</g>
</svg>
