<?xml version="1.0" encoding="utf-8"?>
<!-- Generator: Adobe Illustrator 26.1.0, SVG Export Plug-In . SVG Version: 6.00 Build 0)  -->
<svg version="1.1" xmlns="http://www.w3.org/2000/svg" xmlns:xlink="http://www.w3.org/1999/xlink" x="0px" y="0px"
	 viewBox="0 0 500 500" style="enable-background:new 0 0 500 500;" xml:space="preserve">
<style type="text/css">
	.st0{display:none;}
	.st1{display:inline;}
	.st2{clip-path:url(#SVGID_00000103257167612733893220000015584094755228994737_);}
	.st3{display:inline;fill:#FFDE00;}
	.st4{fill:none;}
	.st5{fill:#FFFFFF;}
</style>
<g id="Livello_1" class="st0">
	<g class="st1">
		<defs>
			<ellipse id="SVGID_1_" cx="250" cy="250" rx="199.34" ry="206.39"/>
		</defs>
		<clipPath id="SVGID_00000157309266177897857180000007446122802110349734_">
			<use xlink:href="#SVGID_1_"  style="overflow:visible;"/>
		</clipPath>
		<path style="clip-path:url(#SVGID_00000157309266177897857180000007446122802110349734_);" d="M31.53,314.65v-36.2l25.76-5.65
			V99.56l-25.76-5.65V57.53h25.76h59.87h31.39v36.38l-31.39,5.65v167.59h59.02l1.37-35.85h45.71v83.35H31.53z"/>
		<path style="clip-path:url(#SVGID_00000157309266177897857180000007446122802110349734_);" d="M218.08,216.5v-27.12l81.44-119.85
			h-43.89l-3.11,22.91h-31.45l2.27-56.21h128.92v26.13l-81.68,120.97h52.26l3.35-21.42h31.33l-3.47,54.6H218.08z"/>
		<path style="clip-path:url(#SVGID_00000157309266177897857180000007446122802110349734_);" d="M350.72,510.14
			c-25.27,0-46.66-5.09-64.16-15.28c-17.5-10.19-30.84-24.34-40-42.46c-9.17-18.12-13.75-39.1-13.75-62.95v-11.46
			c0-25.12,4.53-47.29,13.59-66.51c9.06-19.22,22.2-34.27,39.42-45.15c17.22-10.88,38.02-16.32,62.4-16.32
			c16.66,0,33.38,2.63,50.15,7.9c16.77,5.27,31.53,13.57,44.28,24.92v59.22H400.7l-8.89-32.13c-3.8-4.05-9.2-7.41-16.19-10.07
			c-6.99-2.66-14.84-3.99-23.57-3.99c-13.42,0-24.66,3.45-33.72,10.33c-9.06,6.89-15.85,16.47-20.38,28.74
			c-4.53,12.27-6.79,26.51-6.79,42.72v11.81c0,15.28,2.37,28.54,7.13,39.77c4.75,11.23,11.71,19.91,20.88,26.05
			c9.17,6.14,20.46,9.2,33.88,9.2c7.05,0,14.03-0.75,20.97-2.26c6.93-1.5,12.35-3.18,16.27-5.04v-32.65l-27.51-3.47v-42.03h86.55
			v104.89c-13.2,8.8-28.09,15.37-44.7,19.71C388.04,507.97,370.06,510.14,350.72,510.14z"/>
	</g>
</g>
<g id="Livello_3" class="st0">
	<rect class="st3" width="500" height="500"/>
</g>
<g id="Livello_2">
	<path class="st4" d="M319.18,455.26c9.17,6.14,20.46,9.2,33.88,9.2c7.05,0,14.03-0.75,20.97-2.26c6.93-1.5,12.35-3.18,16.27-5.04
		v-32.65l-27.51-3.47v-0.88c-16.18,11.52-34.09,20.64-53.24,26.84C312.44,450.14,315.64,452.9,319.18,455.26z"/>
	<g>
		<path class="st5" d="M391.81,309.91c-3.8-4.05-9.2-7.41-16.19-10.07c-6.99-2.66-14.84-3.99-23.57-3.99
			c-13.42,0-24.66,3.45-33.72,10.33c-9.06,6.89-15.85,16.47-20.38,28.74c-4.53,12.27-6.79,26.51-6.79,42.72v11.81
			c0,15.28,2.37,28.54,7.13,39.77c2.92,6.9,6.67,12.83,11.25,17.8c19.15-6.2,37.05-15.32,53.24-26.84v-41.15h42.78
			c8.83-11.4,16.52-23.79,22.88-36.99H400.7L391.81,309.91z"/>
		<path class="st5" d="M232.8,389.45v-11.46c0-25.12,4.53-47.29,13.59-66.51c9.06-19.22,22.2-34.27,39.42-45.15
			c17.22-10.88,38.02-16.32,62.4-16.32c16.66,0,33.38,2.63,50.15,7.9c16.77,5.27,31.53,13.57,44.28,24.92v20.42
			c4.37-16.99,6.71-34.83,6.71-53.24c0-77.43-41.19-144.88-102.11-180.2l-76.65,113.52h52.26l3.35-21.42h31.33l-3.47,54.6H218.08
			v-27.12l81.44-119.85h-43.89l-3.11,22.91h-31.45l1.9-46.93c-26.88,3.77-52.06,13.09-74.42,26.81v21.58l-31.39,5.65v167.59h59.02
			l1.37-35.85h45.71v83.35H60.65c26.07,81.9,100.33,141.12,188.03,141.71c-0.73-1.3-1.44-2.62-2.12-3.97
			C237.39,434.28,232.8,413.3,232.8,389.45z"/>
	</g>
</g>
</svg>
