<?xml version="1.0" encoding="utf-8"?>
<!-- Generator: Adobe Illustrator 26.1.0, SVG Export Plug-In . SVG Version: 6.00 Build 0)  -->
<svg version="1.1" id="Livello_1" xmlns="http://www.w3.org/2000/svg" xmlns:xlink="http://www.w3.org/1999/xlink" x="0px" y="0px"
	 viewBox="0 0 500 500" style="enable-background:new 0 0 500 500;" xml:space="preserve">
<style type="text/css">
	.st0{fill:#FFFFFF;}
</style>
<path class="st0" d="M468.9,208.42c-7.92-6.27-14.42-14.14-19.07-23.1c-1.73-10.43-1.19-21.12,1.57-31.32
	c3.06-17.5,6.3-35-3.24-47.95c-9.54-12.95-27.56-15.66-44.89-18.02l0,0c-10.39-0.47-20.57-3.15-29.84-7.88
	c-7.25-7.31-12.85-16.08-16.45-25.72c-7.44-15.66-15.31-31.68-31.15-37.28s-30.89,3.5-46.02,11.64l0,0
	c-8.95,5.91-19.07,9.82-29.66,11.46c-10.62-1.61-20.77-5.48-29.75-11.38c-15.14-8.14-30.8-16.54-46.02-11.64
	c-15.23,4.9-23.71,21.52-31.24,37.45c-3.59,9.64-9.2,18.41-16.45,25.73c-9.27,4.72-19.45,7.4-29.84,7.88
	c-17.5,2.36-35,4.73-44.89,18.02c-9.89,13.3-6.39,30.71-3.06,47.69c2.78,10.18,3.34,20.82,1.66,31.24c-4.67,9-11.2,16.9-19.16,23.19
	c-12.34,11.64-26.25,24.85-26.25,41.82s13.91,30.19,26.25,41.82c7.92,6.27,14.42,14.14,19.07,23.1c1.73,10.43,1.19,21.12-1.57,31.32
	c-3.06,17.5-6.3,35,3.24,47.95s27.56,15.66,44.89,18.02l0,0c10.4,0.47,20.57,3.15,29.84,7.88c7.25,7.31,12.85,16.08,16.45,25.72
	c7.61,15.93,15.49,32.29,31.24,37.45s30.89-3.5,46.02-11.64c8.91-5.96,18.99-9.93,29.57-11.64c10.62,1.61,20.77,5.48,29.75,11.38
	c10.98,7.21,23.52,11.71,36.57,13.12c3.21,0.01,6.4-0.5,9.45-1.49c15.84-5.16,23.71-21.52,31.24-37.45
	c3.59-9.64,9.2-18.41,16.45-25.73c9.27-4.72,19.45-7.4,29.84-7.88c17.5-2.36,35-4.73,44.89-18.02c9.89-13.3,6.39-30.8,3.24-47.95
	c-2.78-10.18-3.35-20.83-1.66-31.24c4.65-8.89,11.12-16.7,18.99-22.93c12.25-11.64,26.25-24.85,26.25-41.82
	C495.15,233.27,481.24,220.06,468.9,208.42L468.9,208.42z M456.83,279.39c-10.18,8.09-18.28,18.5-23.62,30.36
	c-2.79,13.14-2.4,26.76,1.14,39.73c2.45,13.48,4.99,27.39,0,34.48c-4.99,7.09-19.43,8.75-33.07,10.94l0,0
	c-13.34,0.62-26.33,4.43-37.89,11.11c-9.79,8.86-17.32,19.93-21.96,32.29c-6.04,12.6-12.25,25.55-20.91,28.35
	c-8.66,2.8-20.39-4.02-32.29-10.41l0,0c-11.43-7.48-24.48-12.1-38.06-13.48c-13.58,1.38-26.64,6-38.06,13.48
	c-11.9,6.39-24.24,13.04-32.29,10.41c-8.05-2.62-14.88-15.84-20.91-28.35l0,0c-4.64-12.36-12.17-23.43-21.96-32.29
	c-11.56-6.68-24.55-10.49-37.89-11.11c-13.65-1.84-27.82-3.76-33.07-10.94s-2.62-21,0-34.48l0,0c3.54-12.96,3.93-26.58,1.14-39.73
	c-5.34-11.86-13.44-22.27-23.62-30.36c-10.24-9.71-20.82-19.69-20.82-29.14s10.59-19.43,20.74-29.14
	c10.18-8.09,18.29-18.5,23.62-30.36c2.79-13.15,2.39-26.76-1.14-39.73c-2.45-13.48-4.99-27.39,0-34.48s19.43-8.75,33.07-10.94l0,0
	c13.34-0.62,26.33-4.43,37.89-11.11c9.79-8.86,17.32-19.93,21.96-32.29c6.12-12.6,12.6-25.55,21.35-28.35s20.39,4.02,32.29,10.41
	l0,0c11.32,7.43,24.25,12.04,37.71,13.48c13.58-1.38,26.64-6,38.06-13.48c11.9-6.47,24.24-12.77,31.94-10.41
	s14.88,15.84,20.91,28.35l0,0c4.64,12.36,12.17,23.43,21.96,32.29c11.56,6.68,24.55,10.49,37.89,11.11
	c13.65,1.84,27.82,3.76,33.07,10.94s2.62,21,0,34.48l0,0c-3.54,12.96-3.93,26.58-1.14,39.73c5.34,11.86,13.44,22.27,23.62,30.36
	c10.59,9.71,21.18,19.69,21.18,29.14s-10.59,19.43-20.74,29.14H456.83z"/>
<g>
	<g>
		<path class="st0" d="M105.47,288.83v-10.92l8.78-1.79v-58.66l-8.78-1.79V204.7h8.78h18.84l35.25,56.23l0.35-0.06v-43.4
			l-10.92-1.79V204.7h27.39H194v10.98l-8.84,1.79v71.37h-18.09l-36-55.36h-0.35v42.65l10.98,1.79v10.92h-36.23V288.83z"/>
		<path class="st0" d="M198.33,288.83v-10.92l8.9-1.79v-58.66l-8.9-1.79V204.7h66.23v23.46h-14.04l-0.64-9.25h-24.16v19.3h27.68
			v14.27h-27.68v22.13h25.37l0.64-9.59h13.93v23.81L198.33,288.83L198.33,288.83z"/>
		<path class="st0" d="M301.02,288.83l-19.47-72.29l-9.07-0.87V204.7h35.83v10.98l-9.25,1.33l9.54,39.35l1.62,6.53h0.35l1.79-6.53
			l16.53-51.66h13.18l17.28,53.51l1.68,5.26h0.35l1.39-5.26l10-41.2l-9.59-1.33V204.7h35.14v10.98l-8.5,0.87l-19.99,72.29h-16.64
			l-15.26-46.46l-1.85-6.53h-0.35l-2.25,6.76l-15.49,46.23h-16.97V288.83z"/>
	</g>
</g>
</svg>
