<?xml version="1.0" encoding="utf-8"?>
<!-- Generator: Adobe Illustrator 26.1.0, SVG Export Plug-In . SVG Version: 6.00 Build 0)  -->
<svg version="1.1" id="Livello_1" xmlns="http://www.w3.org/2000/svg" xmlns:xlink="http://www.w3.org/1999/xlink" x="0px" y="0px"
	 viewBox="0 0 500 500" style="enable-background:new 0 0 500 500;" xml:space="preserve">
<style type="text/css">
	.st0{fill:#FFFFFF;}
</style>
<path class="st0" d="M468.9,208.42c-7.92-6.27-14.42-14.14-19.07-23.1c-1.73-10.43-1.19-21.12,1.57-31.32
	c3.06-17.5,6.3-35-3.24-47.95c-9.54-12.95-27.56-15.66-44.89-18.02v0c-10.39-0.47-20.57-3.15-29.84-7.88
	c-7.25-7.31-12.85-16.08-16.45-25.72c-7.44-15.66-15.31-31.68-31.15-37.28c-15.84-5.6-30.89,3.5-46.02,11.64v0
	c-8.95,5.91-19.07,9.82-29.66,11.46c-10.62-1.61-20.77-5.48-29.75-11.38c-15.14-8.14-30.8-16.54-46.02-11.64
	c-15.23,4.9-23.71,21.52-31.24,37.45c-3.59,9.64-9.2,18.41-16.45,25.73c-9.27,4.72-19.45,7.4-29.84,7.88
	c-17.5,2.36-35,4.73-44.89,18.02c-9.89,13.3-6.39,30.71-3.06,47.69c2.78,10.18,3.34,20.82,1.66,31.24c-4.67,9-11.2,16.9-19.16,23.19
	c-12.34,11.64-26.25,24.85-26.25,41.82s13.91,30.19,26.25,41.82c7.92,6.27,14.42,14.14,19.07,23.1c1.73,10.43,1.19,21.12-1.57,31.32
	c-3.06,17.5-6.3,35,3.24,47.95s27.56,15.66,44.89,18.02v0c10.4,0.47,20.57,3.15,29.84,7.88c7.25,7.31,12.85,16.08,16.45,25.72
	c7.61,15.93,15.49,32.29,31.24,37.45c15.75,5.16,30.89-3.5,46.02-11.64c8.91-5.96,18.99-9.93,29.57-11.64
	c10.62,1.61,20.77,5.48,29.75,11.38c10.98,7.21,23.52,11.71,36.57,13.12c3.21,0.01,6.4-0.5,9.45-1.49
	c15.84-5.16,23.71-21.52,31.24-37.45c3.59-9.64,9.2-18.41,16.45-25.73c9.27-4.72,19.45-7.4,29.84-7.88
	c17.5-2.36,35-4.73,44.89-18.02c9.89-13.3,6.39-30.8,3.24-47.95c-2.78-10.18-3.35-20.83-1.66-31.24
	c4.65-8.89,11.12-16.7,18.99-22.93c12.25-11.64,26.25-24.85,26.25-41.82C495.15,233.27,481.24,220.06,468.9,208.42L468.9,208.42z
	 M456.83,279.39c-10.18,8.09-18.28,18.5-23.62,30.36c-2.79,13.14-2.4,26.76,1.14,39.73c2.45,13.48,4.99,27.39,0,34.48
	c-4.99,7.09-19.43,8.75-33.07,10.94v0c-13.34,0.62-26.33,4.43-37.89,11.11c-9.79,8.86-17.32,19.93-21.96,32.29
	c-6.04,12.6-12.25,25.55-20.91,28.35c-8.66,2.8-20.39-4.02-32.29-10.41h0c-11.43-7.48-24.48-12.1-38.06-13.48
	c-13.58,1.38-26.64,6-38.06,13.48c-11.9,6.39-24.24,13.04-32.29,10.41c-8.05-2.62-14.88-15.84-20.91-28.35h0
	c-4.64-12.36-12.17-23.43-21.96-32.29c-11.56-6.68-24.55-10.49-37.89-11.11c-13.65-1.84-27.82-3.76-33.07-10.94s-2.62-21,0-34.48v0
	c3.54-12.96,3.93-26.58,1.14-39.73c-5.34-11.86-13.44-22.27-23.62-30.36c-10.24-9.71-20.82-19.69-20.82-29.14
	s10.59-19.43,20.74-29.14c10.18-8.09,18.29-18.5,23.62-30.36c2.79-13.15,2.39-26.76-1.14-39.73c-2.45-13.48-4.99-27.39,0-34.48
	c4.99-7.09,19.43-8.75,33.07-10.94v0c13.34-0.62,26.33-4.43,37.89-11.11c9.79-8.86,17.32-19.93,21.96-32.29
	c6.12-12.6,12.6-25.55,21.35-28.35s20.39,4.02,32.29,10.41v0c11.32,7.43,24.25,12.04,37.71,13.48c13.58-1.38,26.64-6,38.06-13.48
	c11.9-6.47,24.24-12.77,31.94-10.41c7.7,2.36,14.88,15.84,20.91,28.35v0c4.64,12.36,12.17,23.43,21.96,32.29
	c11.56,6.68,24.55,10.49,37.89,11.11c13.65,1.84,27.82,3.76,33.07,10.94s2.62,21,0,34.48v0c-3.54,12.96-3.93,26.58-1.14,39.73
	c5.34,11.86,13.44,22.27,23.62,30.36c10.59,9.71,21.18,19.69,21.18,29.14s-10.59,19.43-20.74,29.14L456.83,279.39z"/>
<path class="st0" d="M250.15,101.49c-39.45,0-77.29,15.67-105.18,43.57c-27.9,27.9-43.57,65.73-43.57,105.18
	s15.67,77.29,43.57,105.18c27.9,27.89,65.73,43.57,105.18,43.57s77.28-15.67,105.18-43.57c27.89-27.9,43.57-65.73,43.57-105.18
	s-15.67-77.29-43.57-105.18C327.43,117.17,289.6,101.49,250.15,101.49z M250.15,381.49c-34.81,0-68.2-13.83-92.81-38.44
	c-24.61-24.61-38.44-58-38.44-92.81s13.83-68.2,38.44-92.81c24.61-24.61,58-38.44,92.81-38.44s68.19,13.83,92.81,38.44
	c24.61,24.61,38.44,58,38.44,92.81s-13.83,68.2-38.44,92.81C318.35,367.67,284.96,381.49,250.15,381.49z"/>
<path class="st0" d="M215.15,232.74c9.28,0,18.18-3.69,24.75-10.25c6.56-6.57,10.25-15.47,10.25-24.75s-3.69-18.18-10.25-24.75
	c-6.57-6.56-15.47-10.25-24.75-10.25s-18.18,3.69-24.75,10.25c-6.56,6.57-10.25,15.47-10.25,24.75s3.69,18.18,10.25,24.75
	C196.97,229.06,205.87,232.74,215.15,232.74z M215.15,180.24c4.64,0,9.09,1.84,12.38,5.12s5.12,7.73,5.12,12.38
	s-1.84,9.09-5.12,12.38s-7.73,5.12-12.38,5.12s-9.09-1.84-12.38-5.12s-5.12-7.73-5.12-12.38s1.84-9.09,5.12-12.38
	S210.51,180.24,215.15,180.24z"/>
<path class="st0" d="M285.15,258.99c-9.28,0-18.18,3.69-24.75,10.25c-6.56,6.57-10.25,15.47-10.25,24.75s3.69,18.18,10.25,24.75
	c6.57,6.56,15.47,10.25,24.75,10.25s18.18-3.69,24.75-10.25c6.56-6.57,10.25-15.47,10.25-24.75s-3.69-18.18-10.25-24.75
	C303.33,262.68,294.43,258.99,285.15,258.99z M285.15,311.49c-4.64,0-9.09-1.84-12.38-5.12s-5.12-7.73-5.12-12.38
	s1.84-9.09,5.12-12.38s7.73-5.12,12.38-5.12s9.09,1.84,12.38,5.12s5.12,7.73,5.12,12.38s-1.84,9.09-5.12,12.38
	S289.79,311.49,285.15,311.49z"/>
<path class="st0" d="M298.89,173.06c-3.99-2.73-9.43-1.71-12.16,2.28l-96.25,140c-2.66,3.98-1.62,9.37,2.34,12.07
	s9.35,1.73,12.1-2.19l96.25-140C303.89,181.24,302.88,175.79,298.89,173.06L298.89,173.06z"/>
</svg>
