<?xml version="1.0" encoding="utf-8"?>
<!-- Generator: Adobe Illustrator 26.1.0, SVG Export Plug-In . SVG Version: 6.00 Build 0)  -->
<svg version="1.1" id="Livello_1" xmlns="http://www.w3.org/2000/svg" xmlns:xlink="http://www.w3.org/1999/xlink" x="0px" y="0px"
	 viewBox="0 0 500 500" style="enable-background:new 0 0 500 500;" xml:space="preserve">
<style type="text/css">
	.st0{fill:#FFFFFF;}
</style>
<path class="st0" d="M445.64,246.01c0,41.48-0.18,82.97,0.19,124.44c0.06,6.49-2.55,9.46-7.62,12.4
	c-57.21,33.2-114.33,66.55-171.4,99.99c-3.34,1.96-5.89,2.03-9.32,0.25c-64.85-33.75-129.74-67.43-194.71-100.94
	c-4.33-2.23-4.54-5.35-4.54-9.28c0.04-78.98,0.01-157.95,0.06-236.93c0-6.95-1.92-15.35,1.27-20.44c3.17-5.06,11.58-6.96,17.82-9.96
	c26.73-12.88,53.55-25.58,80.21-38.61c2.2-1.07,5.06-4.15,4.92-6.1c-1.34-18.63,10.14-27.8,24.8-34.74
	c20.05-9.49,41.46-12,63.34-12.11c23.56-0.11,46.31,3.33,67.54,14.27c13.5,6.95,20.97,17.65,22.2,32.95c0.17,2.17,2.97,4.94,5.23,6
	C377,81.91,408.44,96.48,440,110.78c4.37,1.98,5.74,4.33,5.72,8.97C445.57,161.85,445.64,203.93,445.64,246.01z M77.36,138.25
	c-0.21,3.2-0.42,4.95-0.42,6.71c-0.02,72.38,0.04,144.76-0.14,217.14c-0.01,4.9,2.07,6.97,5.94,8.97
	c52.72,27.25,105.38,54.63,158.07,81.93c1.79,0.93,3.79,1.46,6.73,2.57c0-3.59,0-5.93,0-8.28c0-72.98-0.09-145.96,0.15-218.94
	c0.02-6.45-2.3-9.53-7.88-12.19c-44.58-21.23-89.03-42.74-133.53-64.15C97.01,147.57,87.71,143.18,77.36,138.25z M266.03,460.55
	c3.24-1.6,5.2-2.41,7.01-3.47c49.39-28.79,98.74-57.66,148.2-86.34c4.36-2.53,5.96-5.44,5.95-10.45
	c-0.14-71.19-0.09-142.38-0.12-213.57c0-2.07-0.27-4.14-0.47-6.96c-2.51,0.94-4.18,1.43-5.73,2.18
	c-49.08,23.85-98.1,47.8-147.26,71.47c-5.65,2.72-7.73,6.02-7.72,12.34c0.21,75.58,0.14,151.15,0.14,226.73
	C266.03,454.63,266.03,456.79,266.03,460.55z M418.52,121.97c-26.86-12.38-52.09-24.01-78.39-36.14c0,6.17,0.07,10.73-0.01,15.29
	c-0.21,10.55-2.95,20.39-11.33,27.19c-6.26,5.08-13.25,9.69-20.62,12.89c-20.97,9.13-43.09,11.47-65.88,10.1
	c-19.94-1.2-38.88-5.28-56.19-15.46c-12.9-7.58-21.83-17.72-21.29-33.96c0.17-5.07-0.81-10.17-1.37-16.42
	c-25.38,12.14-50.02,23.93-75.73,36.23c2.9,1.65,4.51,2.7,6.23,3.53c51.13,24.61,102.3,49.13,153.36,73.87
	c4.81,2.33,8.64,2.27,13.41-0.08c40.01-19.71,80.15-39.18,120.24-58.72C392.9,134.47,404.84,128.65,418.52,121.97z M251.7,30.87
	c-7.32,0.59-14.69,0.85-21.96,1.85c-13.68,1.88-26.86,5.47-38.67,13.04c-13.81,8.84-14.27,20.26-0.38,28.7
	c7.18,4.37,15.21,7.81,23.31,10.11c21.75,6.2,44.01,5.94,66.12,2.29c12.38-2.05,24.33-6.05,34.55-13.84
	c8.58-6.53,9.49-16.12,2.06-22.96c-2.88-2.65-6.25-4.93-9.73-6.76C289.71,34.22,271.04,31.25,251.7,30.87z M327.64,80.57
	c-50.5,28.41-100.44,28.05-151.77,0.62c0.49,7.88,1.32,15.53,1.36,23.19c0.04,8.35,4.36,14.16,10.76,18.15
	c6.5,4.07,13.52,7.61,20.75,10.15c18.02,6.34,36.61,7.89,55.73,6.37c15.91-1.27,31.05-4.61,45.15-11.95
	c8.61-4.48,16.82-10.12,17.85-20.81C328.31,97.64,327.64,88.84,327.64,80.57z"/>
</svg>
